<svg width="388" height="256" viewBox="0 0 388 256" fill="none" xmlns="http://www.w3.org/2000/svg">
<path fill-rule="evenodd" clip-rule="evenodd" d="M290.708 2.57409C319.592 12.3901 338.135 34.5851 342.39 64.4331C342.643 66.2061 343.697 66.5081 351.665 67.0891C369.404 68.3831 381.371 76.0381 385.611 88.8041C388.651 97.9551 388.095 171.198 384.934 178.102C378.938 191.2 364.93 198.83 348.976 197.688C342.265 197.208 342.265 197.208 340.21 203.973C338.351 210.093 334.868 217.165 329.64 225.433C325.726 231.622 313.63 242.559 306.154 246.669C289.526 255.809 295.084 255.343 198.154 255.725C97.5562 256.121 97.0332 256.079 80.9212 246.291C64.8912 236.554 46.3932 211.571 46.1882 199.384C46.1562 197.452 45.5642 197.335 35.9042 197.35C19.7212 197.375 8.77816 191.011 2.81516 178.109C-0.280838 171.411 -1.11284 100.241 1.79116 90.5441C5.79616 77.1731 19.0112 68.0281 35.5832 67.1611C45.0032 66.6681 45.0032 66.6681 45.7012 61.5931C49.8912 31.1261 75.6572 4.93209 105.315 0.988086C120.625 -1.04791 284.168 0.351086 290.708 2.57409ZM106.405 32.4781C91.0052 36.6251 80.7522 46.5691 76.1072 61.8621C72.7042 73.0651 73.5342 189.889 77.0742 197.933C82.7732 210.886 92.3152 219.236 106.086 223.321C113.54 225.533 273.47 225.761 281.654 223.572C296.877 219.499 306.853 209.873 312.079 194.215C314.783 186.11 315.293 77.9721 312.685 65.6631C309.037 48.4481 296.58 35.5001 280.355 32.0571C271.803 30.2431 113.282 30.6261 106.405 32.4781ZM129.519 54.0061C133.209 56.9081 133.658 82.4291 130.083 86.0041C127.19 88.8971 99.3922 88.6051 96.4372 85.6501C93.1492 82.3631 93.2242 57.7721 96.5322 54.4641C100.112 50.8841 125.109 50.5371 129.519 54.0061ZM214.516 68.3551C272.483 87.8141 274.703 169.153 217.888 191.903C178.802 207.554 135.174 181.842 129.181 139.623C122.471 92.3541 169.358 53.1961 214.516 68.3551ZM182.654 95.3151C150.945 106.098 147.58 149.413 177.296 164.284C209.357 180.328 242.47 148.745 228.262 115.674C221.352 99.5891 199.183 89.6931 182.654 95.3151Z" fill="black"/>
</svg>
